<svg width="340" height="64" viewBox="0 0 340 64" fill="none" xmlns="http://www.w3.org/2000/svg" role="img" aria-labelledby="title desc">
  <title id="title">PustakaObat.id</title>
  <desc id="desc">Logo PustakaObat.id berupa kapsul terbuka dengan tunas kecil dan wordmark PustakaObat.id.</desc>
  <g transform="translate(4 12)">
    <path d="M5.8 12.1 12.1 5.8a6.1 6.1 0 0 1 8.6 0l3.5 3.5-14.9 14.9-3.5-3.5a6.1 6.1 0 0 1 0-8.6Z" fill="#14532D" />
    <path d="m20.2 9.3 4.1 4.1-15 15-4.1-4.1 15-15Z" fill="white" opacity=".92" />
    <path d="m27.9 5.7 6.4 6.4a6.1 6.1 0 0 1 0 8.6L28.5 26 13.7 11.2l5.6-5.6a6.1 6.1 0 0 1 8.6 0Z" fill="#14532D" opacity=".82" />
    <path d="M20 31.8v-5.1M20 29.3c-3.7 0-6.6-2.3-7.5-5.6 3.7 0 6.6 2.3 7.5 5.6ZM20 29.3c3.7 0 6.6-2.3 7.5-5.6-3.7 0-6.6 2.3-7.5 5.6Z" stroke="#14532D" stroke-width="1.9" stroke-linecap="round" stroke-linejoin="round" />
    <circle cx="16.4" cy="19.8" r="1.35" fill="#C99B3B" />
    <circle cx="20" cy="17.2" r="1.35" fill="#C99B3B" />
    <circle cx="23.6" cy="19.8" r="1.35" fill="#C99B3B" />
  </g>
  <text x="53" y="40" fill="#17211B" font-family="Plus Jakarta Sans, Arial, sans-serif" font-size="25" font-weight="700" letter-spacing="-1.35">Pustaka<tspan fill="#14532D">Obat</tspan><tspan fill="#667169">.id</tspan></text>
</svg>
